<?xml version="1.0" encoding="UTF-8"?>
<svg fill="none" viewBox="0 0 466 449" xmlns="http://www.w3.org/2000/svg">
<style>#righthand,
#lefthand {
  animation: writing 0.9s ease infinite;
}

@keyframes writing {
  from{
    transform: rotateZ(0deg);
  }
  to{
    transform: rotateZ(0.4deg);
  }
}</style>
<path d="m120.5 328.34h30.569l75.332-27.9s53.497-20.666 49.13 18.6c-4.368 39.266-12.01 91.965-12.01 91.965s-24.019-10.333-37.12-7.233-4.367-63.033-4.367-63.033-106.99 48.566-116.82 42.366c-9.8255-6.2-12.009-49.599-12.009-49.599l27.294-5.166z" fill="#2F2E41"/>
<path d="m120.5 328.34h30.569l75.332-27.9s53.497-20.666 49.13 18.6c-4.368 39.266-12.01 91.965-12.01 91.965s-24.019-10.333-37.12-7.233-4.367-63.033-4.367-63.033-106.99 48.566-116.82 42.366c-9.8255-6.2-12.009-49.599-12.009-49.599l27.294-5.166z" fill="#000" opacity=".1"/>
<path d="m168.74 238 37.087 50.326 86.462 68.224s79.895 17.573 68.951 29.977c-10.945 12.404-77.707-12.404-77.707-12.404s-99.595-68.224-102.88-73.393c-3.283-5.168-39.4-53.751-39.4-53.751l27.486-8.979z" fill="#A0616A"/>
<path d="m146.26 197 23.831 44.885s-5.416 21.921-14.082 24.008c-8.666 2.088-45.496-27.139-45.496-27.139l35.747-41.754z" fill="#D0CDE1"/>
<path d="m146.26 197 23.831 44.885s-5.416 21.921-14.082 24.008c-8.666 2.088-45.496-27.139-45.496-27.139l35.747-41.754z" fill="#000" opacity=".1"/>
<path d="m439.68 305.33 7.106 27.842c0.08 0.311 0.067 0.636-0.035 0.94l-32.238 95.68c-0.127 0.379-0.388 0.705-0.738 0.923-0.35 0.219-0.769 0.317-1.185 0.278-0.417-0.039-0.807-0.213-1.106-0.492-0.298-0.279-0.487-0.647-0.534-1.043l-4.46-37.273c-0.029-0.247-3e-3 -0.498 0.079-0.735l29.59-86.249c0.124-0.36 0.367-0.671 0.694-0.888 0.327-0.216 0.72-0.325 1.118-0.311 0.398 0.015 0.78 0.152 1.089 0.392 0.308 0.24 0.526 0.568 0.62 0.936z" fill="#2F2E41"/>
<path d="m436.51 308 6.486 23.645-28.108 86.355-6.486-26.729 28.108-83.271z" fill="#F2F2F2"/>
<path d="m294.22 436.86c1.091 3.122 113.52-1.04 114.62-2.081 0.952-1.302 1.756-2.697 2.401-4.161 1.026-2.081 1.965-4.162 1.965-4.162l-4.366-33.689-111.34-3.766s-2.783 28.549-3.351 41.617c-0.142 3.298-0.142 5.618 0.077 6.242z" fill="#2F2E41"/>
<path d="m394.69 398 2.178 29h-49.008v-29h46.83z" fill="#000" opacity=".1"/>
<path d="m330.28 407.05 0.284-0.053-1.345 12h-26.522v-11.947h27.583z" fill="#000" opacity=".1"/>
<path d="m294.22 436.92c1.092 2.959 113.56-0.987 114.66-1.973 0.952-1.236 1.757-2.558 2.402-3.946h-117.14c-0.142 3.127-0.142 5.327 0.077 5.919z" fill="#000" opacity=".1"/>
<path d="m162.88 183c26.801 0 48.527-20.819 48.527-46.5s-21.726-46.5-48.527-46.5-48.527 20.819-48.527 46.5 21.726 46.5 48.527 46.5z" fill="#A0616A"/>
<path d="m159.52 177.89s-16.413 26.759-19.696 41.167c-3.283 14.409-49.239-28.817-49.239-28.817l-6.0181-14.923s43.222-19.039 39.938-34.477 35.015 37.05 35.015 37.05z" fill="#A0616A"/>
<path d="m168.24 258.27 44.803 55.794 107.09 75.424s77.585 15.498 60.101 26.863c-17.484 11.366-67.75-10.332-67.75-10.332s-108.18-54.76-131.13-77.49c-22.948-22.731-65.565-60.96-65.565-60.96l52.452-9.299z" fill="#A0616A"/>
<path d="m108.04 345.42 13.142 19.57 78.435-23.207c17.21-5.092 36.081-3.219 51.346 5.826 13.69 8.111 22.452 20.986 2.738 40.042-39.427 38.11-65.712 17.51-65.712 17.51s-132.52 58.711-154.42 29.87c-21.904-28.84-22.999-43.26-22.999-43.26s84.33-49.441 97.473-46.351z" fill="#2F2E41"/>
<path d="m271.71 413.29s34.777 21.674-6.521 31.994c-41.298 10.321-71.728-4.128-71.728-4.128s-35.864 0-35.864-17.545c0-17.546 11.954-19.61 11.954-19.61l36.951 5.16s44.559-11.353 65.208 4.129z" fill="#D0CDE1"/>
<path d="m203.06 124.47c3.336 1.414 6.644 3.088 10.271 3.498 3.627 0.411 7.756-0.793 9.473-3.859 0.927-1.656 1.032-3.604 1.076-5.479 0.131-5.688-0.302-11.836-4.092-16.238-2.412-2.8008-5.933-4.5666-8.429-7.2998-1.789-1.9581-2.98-4.3316-4.262-6.6211-4.855-8.6724-12.045-17.007-22.037-19.507-4.172-1.044-8.549-0.9931-12.863-0.9352l-25.162 0.3376c-4.071 0.0546-8.206 0.1181-12.104 1.2389-8.099 2.3286-13.996 8.8051-19.396 14.999-4.041 4.6338-8.092 9.3155-11.125 14.599-4.347 7.7107-6.5456 16.352-6.3852 25.1-0.0337 2.244 0.2709 4.481 0.9046 6.642 0.7412 1.982 1.6596 3.901 2.7446 5.734 4.719 8.813 7.521 19.822 2.207 28.324 9.231-3.586 18.365-8.288 24.454-15.797 2.724-3.359 4.861-7.291 8.491-9.756s9.546-2.679 11.875 0.939c0.801 1.463 1.213 3.091 1.201 4.74 0.17 2.716 0.166 5.536 1.376 8.001 1.211 2.465 4.095 4.453 6.849 3.716 4.742-1.27 4.288-8.191 7.94-11.335 2.774-2.388 7.053-1.932 10.617-3.015 4.152-1.263 7.267-4.684 9.042-8.47 1.35-2.878 1.33-10.409 3.883-11.967 3.202-1.954 10.483 1.153 13.451 2.411z" fill="#2F2E41"/>
<path d="m81.083 170.42c2.2203-0.559 4.5579-0.553 6.7753 0.016 7.0405 1.782 22.823 6.5 26.207 13.68 4.387 9.307 19.742 23.785 19.742 23.785s20.84 19.649 16.452 33.093c-4.387 13.444-20.839 28.957-20.839 28.957s4.387 64.117-17.548 80.664c-21.936 16.546-30.71 5.17-30.71 20.683 0 15.512-68.001 64.117-81.162 34.127 0 0 6.5808-55.845 4.3872-75.493-2.162-19.366 1.003-140.19 76.696-159.51z" fill="#D0CDE1"/>
<path d="m115.19 196.7s66.387 46.255 54.416 65.785c0 0-40.268 18.502-48.974 17.474-8.707-1.028-42.444-37.004-51.151-40.088-8.7065-3.083-13.06-58.589 45.709-43.171z" fill="#D0CDE1"/>
</svg>
